<?xml version="1.0" encoding="UTF-8" standalone="no"?><!DOCTYPE svg PUBLIC "-//W3C//DTD SVG 1.1//EN" "http://www.w3.org/Graphics/SVG/1.1/DTD/svg11.dtd"><svg width="100%" height="100%" viewBox="0 0 528 66" version="1.1" xmlns="http://www.w3.org/2000/svg" xmlns:xlink="http://www.w3.org/1999/xlink" xml:space="preserve" xmlns:serif="http://www.serif.com/" style="fill-rule:evenodd;clip-rule:evenodd;stroke-linecap:round;stroke-linejoin:round;stroke-miterlimit:1.5;"><g><g><ellipse cx="353.918" cy="33.491" rx="23.193" ry="22.758" style="fill:#3da7d3;"/><ellipse cx="324.064" cy="33.584" rx="23.193" ry="22.758" style="fill:#004abd;"/><path d="M266.331,55.884l42.448,0l0,-24.281l-16.213,0l-26.235,24.281Z" style="fill:#3da7d3;"/><path d="M309.051,31.666c-0.984,-11.892 -10.403,-21.016 -21.695,-21.016c-11.292,0 -20.71,9.124 -21.694,21.016l43.389,0Z" style="fill:#004abd;"/></g><path d="M304.752,20.38c2.732,1.53 4.017,11.214 4.017,11.214l-16.066,0c0,0 12.029,-11.226 12.049,-11.214Z" style="fill:#0027bd;"/><path d="M308.872,31.848l1.968,6.338l6.37,0l-5.153,3.916l1.968,6.337l-5.153,-3.916l-5.152,3.916l1.968,-6.337l-5.153,-3.916l6.369,0l1.968,-6.338Z" style="fill:#ebebeb;"/></g><g><path d="M397.198,50.327l0,-1.485l5.118,-0.009l0,4.697c-0.785,0.657 -1.596,1.151 -2.431,1.482c-0.835,0.331 -1.693,0.496 -2.572,0.496c-1.187,0 -2.265,-0.266 -3.235,-0.799c-0.969,-0.532 -1.702,-1.302 -2.196,-2.31c-0.495,-1.007 -0.742,-2.133 -0.742,-3.376c0,-1.232 0.246,-2.382 0.738,-3.451c0.492,-1.067 1.199,-1.86 2.122,-2.378c0.923,-0.518 1.987,-0.778 3.19,-0.778c0.874,0 1.664,0.148 2.37,0.445c0.705,0.297 1.259,0.71 1.66,1.239c0.402,0.53 0.706,1.221 0.915,2.073l-1.442,0.415c-0.181,-0.645 -0.407,-1.152 -0.676,-1.52c-0.27,-0.369 -0.654,-0.664 -1.154,-0.885c-0.5,-0.222 -1.055,-0.333 -1.665,-0.333c-0.731,0 -1.363,0.117 -1.896,0.349c-0.533,0.234 -0.963,0.541 -1.289,0.92c-0.327,0.38 -0.581,0.797 -0.763,1.253c-0.308,0.782 -0.461,1.632 -0.461,2.547c0,1.128 0.185,2.072 0.556,2.832c0.371,0.76 0.911,1.325 1.62,1.693c0.708,0.368 1.461,0.553 2.258,0.553c0.692,0 1.368,-0.139 2.028,-0.419c0.659,-0.279 1.159,-0.577 1.499,-0.894l0,-2.357l-3.552,0Z" style="fill:#5baef6;fill-rule:nonzero;"/><path d="M415.872,42.738l1.598,0l0,7.314c0,1.272 -0.137,2.283 -0.411,3.031c-0.275,0.748 -0.771,1.358 -1.488,1.827c-0.717,0.469 -1.659,0.703 -2.824,0.703c-1.131,0 -2.057,-0.204 -2.777,-0.613c-0.719,-0.409 -1.234,-1 -1.541,-1.774c-0.308,-0.774 -0.462,-1.832 -0.462,-3.174l0,-7.314l1.599,0l0,7.306c0,1.099 0.098,1.91 0.293,2.43c0.195,0.522 0.53,0.923 1.005,1.205c0.475,0.283 1.056,0.423 1.744,0.423c1.176,0 2.014,-0.279 2.513,-0.837c0.501,-0.559 0.751,-1.633 0.751,-3.221l0,-7.306Z" style="fill:#5baef6;fill-rule:nonzero;"/><path d="M422.416,55.333l4.64,-12.659l1.723,0l4.945,12.659l-1.822,0l-1.408,-3.834l-5.054,0l-1.326,3.834l-1.698,0Zm3.486,-5.198l4.097,0l-1.261,-3.507c-0.385,-1.065 -0.671,-1.94 -0.858,-2.625c-0.154,0.812 -0.37,1.618 -0.65,2.418l-1.328,3.714Z" style="fill:#5baef6;fill-rule:nonzero;"/><path d="M440.258,55.333l0,-5.363l-4.657,-7.296l1.946,0l2.381,3.816c0.44,0.714 0.849,1.428 1.229,2.142c0.362,-0.662 0.802,-1.408 1.318,-2.237l2.341,-3.721l1.863,0l-4.822,7.296l0,5.363l-1.599,0Z" style="fill:#5baef6;fill-rule:nonzero;"/><path d="M448.371,55.333l4.64,-12.659l1.723,0l4.946,12.659l-1.822,0l-1.41,-3.834l-5.052,0l-1.327,3.834l-1.698,0Zm3.487,-5.198l4.096,0l-1.261,-3.507c-0.385,-1.065 -0.671,-1.94 -0.857,-2.625c-0.154,0.812 -0.371,1.618 -0.652,2.418l-1.326,3.714Z" style="fill:#5baef6;fill-rule:nonzero;"/><path d="M473.456,53.978c0.742,0.535 1.425,0.926 2.052,1.174l-0.47,1.166c-0.868,-0.329 -1.734,-0.847 -2.596,-1.555c-0.896,0.524 -1.885,0.786 -2.967,0.786c-1.094,0 -2.085,-0.276 -2.976,-0.829c-0.89,-0.553 -1.576,-1.33 -2.056,-2.332c-0.481,-1.002 -0.721,-2.13 -0.721,-3.385c0,-1.249 0.241,-2.386 0.725,-3.411c0.484,-1.025 1.172,-1.805 2.065,-2.34c0.892,-0.536 1.891,-0.803 2.995,-0.803c1.116,0 2.122,0.278 3.017,0.833c0.896,0.556 1.578,1.333 2.048,2.332c0.47,0.998 0.705,2.126 0.705,3.38c0,1.042 -0.151,1.979 -0.453,2.811c-0.303,0.832 -0.759,1.557 -1.368,2.173Zm-3.52,-2.142c0.923,0.27 1.684,0.673 2.283,1.208c0.94,-0.898 1.41,-2.248 1.41,-4.05c0,-1.024 -0.167,-1.92 -0.499,-2.685c-0.332,-0.766 -0.819,-1.361 -1.459,-1.783c-0.64,-0.423 -1.359,-0.635 -2.155,-0.635c-1.193,0 -2.182,0.428 -2.967,1.282c-0.786,0.855 -1.179,2.132 -1.179,3.83c0,1.647 0.389,2.911 1.166,3.791c0.778,0.881 1.771,1.322 2.98,1.322c0.571,0 1.11,-0.113 1.615,-0.337c-0.5,-0.34 -1.027,-0.582 -1.582,-0.726l0.387,-1.217Z" style="fill:#5baef6;fill-rule:nonzero;"/><path d="M489.768,42.674l1.599,0l0,7.314c0,1.272 -0.137,2.283 -0.412,3.031c-0.275,0.748 -0.771,1.357 -1.488,1.826c-0.717,0.469 -1.658,0.704 -2.823,0.704c-1.132,0 -2.057,-0.204 -2.777,-0.613c-0.72,-0.409 -1.234,-1.001 -1.541,-1.774c-0.308,-0.775 -0.462,-1.833 -0.462,-3.174l0,-7.314l1.599,0l0,7.305c0,1.1 0.097,1.91 0.292,2.431c0.195,0.521 0.531,0.922 1.006,1.205c0.475,0.282 1.056,0.423 1.743,0.423c1.176,0 2.014,-0.279 2.514,-0.838c0.5,-0.558 0.75,-1.632 0.75,-3.221l0,-7.305Z" style="fill:#5baef6;fill-rule:nonzero;"/><rect x="498.044" y="42.674" width="1.599" height="12.66" style="fill:#5baef6;"/><path d="M506.539,55.333l0,-12.659l1.599,0l0,11.165l5.951,0l0,1.494l-7.55,0Z" style="fill:#5baef6;fill-rule:nonzero;"/></g><g><rect x="386.398" y="29.134" width="1.291" height="9.706" style="fill:#273c83;"/><path d="M390.486,38.84l0,-9.706l1.325,0l5.124,7.62l0,-7.62l1.238,0l0,9.706l-1.325,0l-5.124,-7.627l0,7.627l-1.238,0Z" style="fill:#273c83;fill-rule:nonzero;"/><path d="M400.816,38.859l0,-9.706l3.36,0c0.76,0 1.339,0.046 1.738,0.139c0.558,0.128 1.036,0.36 1.43,0.696c0.515,0.432 0.9,0.984 1.155,1.658c0.256,0.673 0.383,1.442 0.383,2.307c0,0.737 -0.087,1.39 -0.26,1.96c-0.173,0.569 -0.395,1.041 -0.665,1.414c-0.271,0.373 -0.567,0.666 -0.889,0.88c-0.321,0.214 -0.71,0.376 -1.164,0.487c-0.455,0.11 -0.978,0.165 -1.568,0.165l-3.52,0Zm1.291,-1.145l2.083,0c0.643,0 1.148,-0.06 1.514,-0.179c0.366,-0.119 0.658,-0.287 0.875,-0.503c0.307,-0.305 0.545,-0.714 0.716,-1.228c0.17,-0.514 0.256,-1.138 0.256,-1.871c0,-1.015 -0.167,-1.795 -0.503,-2.34c-0.335,-0.545 -0.741,-0.911 -1.221,-1.096c-0.346,-0.133 -0.903,-0.199 -1.67,-0.199l-2.05,0l0,7.416Z" style="fill:#273c83;fill-rule:nonzero;"/><path d="M411.571,38.84l0,-9.706l5.22,0l0,1.145l-4.265,0l0,2.973l3.994,0l0,1.139l-3.994,0l0,3.304l4.432,0l0,1.145l-5.387,0Z" style="fill:#273c83;fill-rule:nonzero;"/><path d="M418.742,38.84l0,-9.706l3.68,0c0.648,0 1.143,0.031 1.484,0.093c0.479,0.079 0.881,0.231 1.205,0.453c0.324,0.223 0.585,0.535 0.782,0.937c0.197,0.402 0.296,0.843 0.296,1.324c0,0.826 -0.264,1.524 -0.792,2.095c-0.528,0.572 -1.482,0.858 -2.862,0.858l-2.502,0l0,3.946l-1.291,0Zm1.291,-5.092l2.522,0c0.835,0 1.427,-0.154 1.777,-0.463c0.351,-0.309 0.526,-0.744 0.526,-1.304c0,-0.406 -0.103,-0.754 -0.309,-1.043c-0.207,-0.289 -0.479,-0.48 -0.815,-0.573c-0.218,-0.057 -0.619,-0.086 -1.206,-0.086l-2.495,0l0,3.469Z" style="fill:#273c83;fill-rule:nonzero;"/><path d="M427.859,38.84l0,-9.706l5.299,0l0,1.145l-4.329,0l0,2.973l4.054,0l0,1.139l-4.054,0l0,3.304l4.499,0l0,1.145l-5.469,0Z" style="fill:#273c83;fill-rule:nonzero;"/><path d="M436.008,38.922l0,-9.706l1.325,0l5.124,7.62l0,-7.62l1.238,0l0,9.706l-1.324,0l-5.125,-7.627l0,7.627l-1.238,0Z" style="fill:#273c83;fill-rule:nonzero;"/><path d="M446.767,38.84l0,-9.706l2.976,0c0.672,0 1.185,0.046 1.539,0.139c0.494,0.128 0.917,0.36 1.267,0.695c0.456,0.433 0.797,0.986 1.022,1.659c0.227,0.673 0.339,1.442 0.339,2.307c0,0.737 -0.076,1.39 -0.23,1.96c-0.153,0.569 -0.349,1.041 -0.589,1.413c-0.24,0.373 -0.502,0.667 -0.787,0.881c-0.285,0.214 -0.629,0.376 -1.032,0.486c-0.402,0.111 -0.865,0.166 -1.387,0.166l-3.118,0Zm1.143,-1.145l1.845,0c0.57,0 1.017,-0.06 1.341,-0.179c0.324,-0.12 0.582,-0.287 0.775,-0.504c0.271,-0.304 0.482,-0.713 0.633,-1.227c0.152,-0.514 0.227,-1.138 0.227,-1.871c0,-1.015 -0.148,-1.795 -0.445,-2.34c-0.296,-0.546 -0.656,-0.911 -1.081,-1.096c-0.306,-0.132 -0.799,-0.199 -1.479,-0.199l-1.816,0l0,7.416Z" style="fill:#273c83;fill-rule:nonzero;"/><path d="M456.503,38.84l0,-9.706l5.246,0l0,1.145l-4.286,0l0,2.973l4.014,0l0,1.139l-4.014,0l0,3.304l4.455,0l0,1.145l-5.415,0Z" style="fill:#273c83;fill-rule:nonzero;"/><path d="M464.083,38.84l0,-9.706l1.325,0l5.124,7.62l0,-7.62l1.238,0l0,9.706l-1.324,0l-5.125,-7.627l0,7.627l-1.238,0Z" style="fill:#273c83;fill-rule:nonzero;"/><path d="M481.837,35.437l1.291,0.325c-0.271,1.054 -0.758,1.858 -1.461,2.413c-0.703,0.554 -1.563,0.83 -2.579,0.83c-1.051,0 -1.906,-0.212 -2.565,-0.638c-0.659,-0.427 -1.16,-1.043 -1.504,-1.851c-0.344,-0.808 -0.516,-1.675 -0.516,-2.602c0,-1.011 0.194,-1.892 0.582,-2.645c0.388,-0.753 0.941,-1.324 1.657,-1.715c0.717,-0.39 1.505,-0.585 2.366,-0.585c0.976,0 1.797,0.246 2.463,0.741c0.665,0.494 1.128,1.19 1.39,2.086l-1.27,0.297c-0.227,-0.706 -0.555,-1.22 -0.986,-1.542c-0.43,-0.323 -0.971,-0.483 -1.624,-0.483c-0.75,0 -1.376,0.179 -1.88,0.536c-0.503,0.358 -0.857,0.838 -1.061,1.44c-0.204,0.603 -0.306,1.224 -0.306,1.864c0,0.825 0.121,1.545 0.363,2.161c0.241,0.616 0.617,1.076 1.128,1.381c0.51,0.304 1.062,0.456 1.657,0.456c0.723,0 1.335,-0.207 1.837,-0.622c0.501,-0.415 0.84,-1.031 1.018,-1.847Z" style="fill:#273c83;fill-rule:nonzero;"/><rect x="485.072" y="29.134" width="1.291" height="9.706" style="fill:#273c83;"/><path d="M487.568,38.84l3.387,-9.706l1.257,0l3.61,9.706l-1.33,0l-1.029,-2.94l-3.688,0l-0.968,2.94l-1.239,0Zm2.544,-3.985l2.99,0l-0.92,-2.688c-0.281,-0.817 -0.49,-1.488 -0.626,-2.013c-0.112,0.622 -0.27,1.24 -0.476,1.853l-0.968,2.848Z" style="fill:#273c83;fill-rule:nonzero;"/><path d="M501.238,38.84l0,-9.706l3.36,0c0.76,0 1.338,0.046 1.738,0.139c0.558,0.128 1.035,0.36 1.43,0.695c0.515,0.433 0.9,0.986 1.155,1.659c0.255,0.673 0.383,1.442 0.383,2.307c0,0.737 -0.087,1.39 -0.26,1.96c-0.173,0.569 -0.395,1.041 -0.665,1.413c-0.271,0.373 -0.567,0.667 -0.889,0.881c-0.322,0.214 -0.71,0.376 -1.164,0.486c-0.455,0.111 -0.978,0.166 -1.568,0.166l-3.52,0Zm1.29,-1.145l2.084,0c0.643,0 1.148,-0.06 1.514,-0.179c0.366,-0.12 0.658,-0.287 0.875,-0.504c0.306,-0.304 0.545,-0.713 0.716,-1.227c0.17,-0.514 0.256,-1.138 0.256,-1.871c0,-1.015 -0.167,-1.795 -0.503,-2.34c-0.335,-0.546 -0.742,-0.911 -1.221,-1.096c-0.346,-0.132 -0.903,-0.199 -1.67,-0.199l-2.051,0l0,7.416Z" style="fill:#273c83;fill-rule:nonzero;"/><path d="M511.776,38.84l0,-9.706l5.062,0l0,1.145l-4.136,0l0,2.973l3.873,0l0,1.139l-3.873,0l0,3.304l4.298,0l0,1.145l-5.224,0Z" style="fill:#273c83;fill-rule:nonzero;"/></g><g><path d="M385.338,10.516l4.594,0c0.909,0 1.587,0.047 2.034,0.142c0.447,0.094 0.847,0.292 1.2,0.592c0.352,0.301 0.646,0.701 0.881,1.201c0.235,0.5 0.353,1.06 0.353,1.681c0,0.673 -0.145,1.291 -0.435,1.852c-0.29,0.562 -0.684,0.983 -1.18,1.265c0.701,0.254 1.239,0.689 1.615,1.303c0.376,0.614 0.564,1.336 0.564,2.166c0,0.654 -0.121,1.289 -0.364,1.906c-0.243,0.618 -0.575,1.111 -0.996,1.48c-0.42,0.37 -0.939,0.596 -1.556,0.682c-0.386,0.051 -1.32,0.084 -2.798,0.097l-3.912,0l0,-14.367Zm2.321,2.391l0,3.322l1.52,0c0.904,0 1.466,-0.016 1.685,-0.049c0.398,-0.058 0.71,-0.23 0.937,-0.514c0.228,-0.285 0.341,-0.659 0.341,-1.123c0,-0.444 -0.098,-0.805 -0.294,-1.083c-0.196,-0.277 -0.487,-0.445 -0.874,-0.504c-0.23,-0.033 -0.891,-0.049 -1.983,-0.049l-1.332,0Zm0,5.713l0,3.843l2.147,0c0.837,0 1.367,-0.03 1.592,-0.088c0.344,-0.079 0.626,-0.27 0.842,-0.574c0.217,-0.304 0.326,-0.711 0.326,-1.221c0,-0.43 -0.084,-0.797 -0.251,-1.097c-0.168,-0.3 -0.409,-0.519 -0.725,-0.657c-0.317,-0.136 -1.003,-0.206 -2.058,-0.206l-1.873,0Z" style="fill:#273c83;fill-rule:nonzero;"/><rect x="396.918" y="10.391" width="2.545" height="14.368" style="fill:#273c83;"/><path d="M410.618,19.616l2.467,0.892c-0.378,1.568 -1.007,2.732 -1.887,3.494c-0.88,0.761 -1.996,1.141 -3.348,1.141c-1.674,0 -3.05,-0.651 -4.127,-1.955c-1.077,-1.304 -1.616,-3.085 -1.616,-5.346c0,-2.392 0.542,-4.248 1.625,-5.572c1.083,-1.323 2.507,-1.984 4.272,-1.984c1.542,0 2.794,0.519 3.757,1.558c0.573,0.614 1.003,1.496 1.29,2.646l-2.52,0.686c-0.148,-0.745 -0.459,-1.333 -0.932,-1.764c-0.473,-0.432 -1.047,-0.647 -1.724,-0.647c-0.933,0 -1.691,0.383 -2.273,1.147c-0.582,0.764 -0.873,2.002 -0.873,3.714c0,1.817 0.287,3.11 0.86,3.881c0.573,0.772 1.318,1.157 2.235,1.157c0.676,0 1.258,-0.245 1.745,-0.735c0.487,-0.49 0.837,-1.261 1.049,-2.313Z" style="fill:#273c83;fill-rule:nonzero;"/><path d="M415.909,25l0,-14.368l8.178,0l0,2.431l-5.951,0l0,3.185l5.537,0l0,2.421l-5.537,0l0,3.91l6.161,0l0,2.421l-8.388,0Z" style="fill:#273c83;fill-rule:nonzero;"/><path d="M426.465,24.817l0,-14.368l2.747,0l5.723,9.595l0,-9.595l2.623,0l0,14.368l-2.832,0l-5.638,-9.37l0,9.37l-2.623,0Z" style="fill:#273c83;fill-rule:nonzero;"/><path d="M443.377,24.775l0,-11.938l-4.131,0l0,-2.43l11.065,0l0,2.43l-4.122,0l0,11.938l-2.812,0Z" style="fill:#273c83;fill-rule:nonzero;"/><path d="M451.132,24.783l0,-14.368l8.286,0l0,2.43l-6.029,0l0,3.186l5.61,0l0,2.421l-5.61,0l0,3.91l6.243,0l0,2.421l-8.5,0Z" style="fill:#273c83;fill-rule:nonzero;"/><path d="M461.843,24.816l0,-14.368l2.773,0l5.777,9.595l0,-9.595l2.648,0l0,14.368l-2.859,0l-5.691,-9.369l0,9.369l-2.648,0Z" style="fill:#273c83;fill-rule:nonzero;"/><path d="M486.456,24.811l-2.768,0l-1.101,-3.264l-5.037,0l-1.04,3.264l-2.699,0l4.908,-14.368l2.69,0l5.047,14.368Zm-4.685,-5.684l-1.737,-5.332l-1.702,5.332l3.439,0Z" style="fill:#273c83;fill-rule:nonzero;"/><path d="M486.99,24.759l0,-14.368l5.356,0c1.347,0 2.326,0.128 2.936,0.387c0.61,0.258 1.099,0.717 1.465,1.377c0.368,0.66 0.551,1.415 0.551,2.264c0,1.078 -0.278,1.968 -0.834,2.671c-0.556,0.701 -1.387,1.144 -2.493,1.328c0.55,0.365 1.004,0.767 1.363,1.205c0.357,0.437 0.84,1.215 1.448,2.333l1.538,2.803l-3.042,0l-1.84,-3.127c-0.654,-1.117 -1.1,-1.821 -1.341,-2.112c-0.241,-0.291 -0.496,-0.49 -0.765,-0.598c-0.27,-0.108 -0.697,-0.162 -1.281,-0.162l-0.516,0l0,5.999l-2.545,0Zm2.545,-8.292l1.883,0c1.22,0 1.982,-0.059 2.286,-0.177c0.304,-0.117 0.542,-0.32 0.714,-0.607c0.172,-0.287 0.258,-0.647 0.258,-1.078c0,-0.483 -0.113,-0.874 -0.34,-1.171c-0.226,-0.298 -0.546,-0.486 -0.958,-0.564c-0.207,-0.033 -0.826,-0.049 -1.857,-0.049l-1.986,0l0,3.646Z" style="fill:#273c83;fill-rule:nonzero;"/><rect x="499.619" y="10.391" width="2.545" height="14.368" style="fill:#273c83;"/><path d="M505.03,17.791c0,-1.464 0.192,-2.692 0.576,-3.685c0.286,-0.731 0.677,-1.388 1.173,-1.97c0.496,-0.581 1.039,-1.012 1.629,-1.294c0.785,-0.379 1.691,-0.568 2.716,-0.568c1.858,0 3.343,0.657 4.458,1.97c1.114,1.313 1.672,3.139 1.672,5.479c0,2.319 -0.553,4.134 -1.659,5.444c-1.107,1.31 -2.585,1.965 -4.436,1.965c-1.874,0 -3.364,-0.652 -4.471,-1.955c-1.106,-1.303 -1.658,-3.099 -1.658,-5.386Zm2.621,-0.098c0,1.627 0.33,2.861 0.989,3.7c0.659,0.84 1.496,1.259 2.51,1.259c1.015,0 1.847,-0.416 2.498,-1.249c0.65,-0.833 0.975,-2.083 0.975,-3.749c0,-1.647 -0.316,-2.875 -0.95,-3.685c-0.633,-0.81 -1.474,-1.215 -2.523,-1.215c-1.048,0 -1.894,0.41 -2.536,1.229c-0.642,0.821 -0.963,2.057 -0.963,3.71Z" style="fill:#273c83;fill-rule:nonzero;"/></g><rect x="257.891" y="2.675" width="267.588" height="61.543" style="fill:none;stroke:#273c83;stroke-width:0.73px;"/><rect x="146.516" y="2.675" width="109.117" height="61.543" style="fill:#3da7d3;stroke:#3da7d3;stroke-width:0.73px;"/><g><path d="M168.88,55.74l-1.844,0l0,-6.394c-0.673,0.58 -1.468,1.008 -2.382,1.286l0,-1.54c0.481,-0.144 1.004,-0.418 1.568,-0.824c0.565,-0.404 0.952,-0.876 1.162,-1.415l1.496,0l0,8.887Z" style="fill:#273c83;fill-rule:nonzero;"/><path d="M173.219,50.964c-0.477,-0.185 -0.824,-0.44 -1.04,-0.763c-0.217,-0.325 -0.325,-0.679 -0.325,-1.066c0,-0.66 0.25,-1.205 0.752,-1.636c0.501,-0.431 1.213,-0.646 2.136,-0.646c0.914,0 1.624,0.215 2.13,0.646c0.505,0.431 0.758,0.976 0.758,1.636c0,0.411 -0.116,0.776 -0.348,1.096c-0.232,0.32 -0.558,0.564 -0.978,0.733c0.534,0.198 0.94,0.486 1.218,0.864c0.278,0.378 0.417,0.814 0.417,1.31c0,0.816 -0.284,1.48 -0.851,1.992c-0.566,0.511 -1.32,0.766 -2.261,0.766c-0.875,0 -1.603,-0.211 -2.186,-0.633c-0.686,-0.499 -1.03,-1.184 -1.03,-2.053c0,-0.479 0.129,-0.919 0.387,-1.319c0.258,-0.401 0.666,-0.709 1.221,-0.927Zm0.381,-1.708c0,0.338 0.104,0.602 0.312,0.791c0.208,0.189 0.484,0.283 0.83,0.283c0.35,0 0.63,-0.095 0.84,-0.286c0.21,-0.192 0.315,-0.456 0.315,-0.794c0,-0.318 -0.104,-0.573 -0.312,-0.764c-0.208,-0.191 -0.482,-0.287 -0.823,-0.287c-0.355,0 -0.637,0.097 -0.847,0.29c-0.21,0.193 -0.315,0.449 -0.315,0.767Zm-0.171,3.791c0,0.467 0.13,0.831 0.39,1.093c0.261,0.262 0.586,0.392 0.976,0.392c0.38,0 0.695,-0.125 0.944,-0.377c0.25,-0.252 0.375,-0.615 0.375,-1.09c0,-0.415 -0.127,-0.748 -0.381,-0.999c-0.254,-0.251 -0.575,-0.377 -0.965,-0.377c-0.45,0 -0.786,0.142 -1.008,0.428c-0.221,0.286 -0.331,0.596 -0.331,0.93Z" style="fill:#273c83;fill-rule:nonzero;"/><path d="M185.342,54.164l0,1.576l-6.465,0c0.07,-0.596 0.28,-1.161 0.63,-1.694c0.35,-0.533 1.042,-1.241 2.075,-2.122c0.831,-0.712 1.341,-1.195 1.528,-1.449c0.254,-0.35 0.381,-0.696 0.381,-1.038c0,-0.379 -0.11,-0.669 -0.331,-0.873c-0.221,-0.202 -0.526,-0.304 -0.916,-0.304c-0.385,0 -0.692,0.107 -0.918,0.32c-0.228,0.213 -0.36,0.567 -0.395,1.062l-1.837,-0.169c0.109,-0.933 0.453,-1.604 1.03,-2.01c0.578,-0.407 1.3,-0.61 2.166,-0.61c0.95,0 1.696,0.236 2.238,0.706c0.543,0.471 0.814,1.057 0.814,1.757c0,0.398 -0.078,0.778 -0.232,1.138c-0.156,0.361 -0.402,0.737 -0.739,1.132c-0.224,0.261 -0.626,0.638 -1.208,1.129c-0.582,0.491 -0.95,0.817 -1.106,0.978c-0.155,0.161 -0.281,0.318 -0.377,0.471l3.662,0Z" style="fill:#273c83;fill-rule:nonzero;"/><path d="M189.707,46.853c0.932,0 1.661,0.306 2.186,0.918c0.625,0.724 0.939,1.926 0.939,3.604c0,1.674 -0.316,2.877 -0.946,3.61c-0.52,0.603 -1.247,0.905 -2.179,0.905c-0.936,0 -1.691,-0.331 -2.264,-0.992c-0.573,-0.663 -0.86,-1.843 -0.86,-3.542c0,-1.666 0.315,-2.865 0.945,-3.597c0.52,-0.604 1.247,-0.906 2.179,-0.906Zm0,1.407c-0.223,0 -0.422,0.065 -0.597,0.196c-0.175,0.131 -0.311,0.365 -0.407,0.703c-0.127,0.439 -0.191,1.177 -0.191,2.216c0,1.038 0.057,1.752 0.171,2.14c0.114,0.388 0.257,0.647 0.43,0.775c0.173,0.129 0.371,0.194 0.594,0.194c0.223,0 0.422,-0.066 0.597,-0.197c0.176,-0.131 0.311,-0.365 0.407,-0.703c0.127,-0.434 0.191,-1.171 0.191,-2.209c0,-1.039 -0.057,-1.752 -0.171,-2.141c-0.114,-0.388 -0.257,-0.647 -0.43,-0.778c-0.173,-0.131 -0.371,-0.196 -0.594,-0.196Z" style="fill:#273c83;fill-rule:nonzero;"/><rect x="197.984" y="51.682" width="3.623" height="1.697" style="fill:#273c83;"/><path d="M212.24,54.164l0,1.576l-6.465,0c0.07,-0.596 0.28,-1.161 0.63,-1.694c0.35,-0.533 1.041,-1.241 2.074,-2.122c0.831,-0.712 1.341,-1.195 1.529,-1.449c0.254,-0.35 0.382,-0.696 0.382,-1.038c0,-0.379 -0.111,-0.669 -0.332,-0.873c-0.221,-0.202 -0.527,-0.304 -0.916,-0.304c-0.385,0 -0.691,0.107 -0.919,0.32c-0.228,0.213 -0.359,0.567 -0.393,1.062l-1.838,-0.169c0.109,-0.933 0.452,-1.604 1.03,-2.01c0.578,-0.407 1.3,-0.61 2.166,-0.61c0.95,0 1.695,0.236 2.239,0.706c0.542,0.471 0.813,1.057 0.813,1.757c0,0.398 -0.077,0.778 -0.233,1.138c-0.155,0.361 -0.401,0.737 -0.738,1.132c-0.223,0.261 -0.626,0.638 -1.208,1.129c-0.582,0.491 -0.951,0.817 -1.106,0.978c-0.155,0.161 -0.281,0.318 -0.377,0.471l3.662,0Z" style="fill:#273c83;fill-rule:nonzero;"/><path d="M216.605,46.853c0.932,0 1.661,0.306 2.186,0.918c0.625,0.724 0.938,1.926 0.938,3.604c0,1.674 -0.315,2.877 -0.945,3.61c-0.52,0.603 -1.247,0.905 -2.179,0.905c-0.936,0 -1.691,-0.331 -2.264,-0.992c-0.574,-0.663 -0.861,-1.843 -0.861,-3.542c0,-1.666 0.316,-2.865 0.946,-3.597c0.521,-0.604 1.247,-0.906 2.179,-0.906Zm0,1.407c-0.223,0 -0.422,0.065 -0.597,0.196c-0.176,0.131 -0.311,0.365 -0.408,0.703c-0.126,0.439 -0.189,1.177 -0.189,2.216c0,1.038 0.056,1.752 0.17,2.14c0.114,0.388 0.257,0.647 0.43,0.775c0.173,0.129 0.371,0.194 0.594,0.194c0.223,0 0.422,-0.066 0.598,-0.197c0.174,-0.131 0.31,-0.365 0.406,-0.703c0.127,-0.434 0.191,-1.171 0.191,-2.209c0,-1.039 -0.057,-1.752 -0.171,-2.141c-0.114,-0.388 -0.257,-0.647 -0.43,-0.778c-0.173,-0.131 -0.371,-0.196 -0.594,-0.196Z" style="fill:#273c83;fill-rule:nonzero;"/><path d="M227.192,54.164l0,1.576l-6.465,0c0.07,-0.596 0.28,-1.161 0.63,-1.694c0.35,-0.533 1.041,-1.241 2.074,-2.122c0.831,-0.712 1.341,-1.195 1.529,-1.449c0.254,-0.35 0.382,-0.696 0.382,-1.038c0,-0.379 -0.111,-0.669 -0.332,-0.873c-0.221,-0.202 -0.527,-0.304 -0.916,-0.304c-0.385,0 -0.691,0.107 -0.919,0.32c-0.228,0.213 -0.359,0.567 -0.393,1.062l-1.838,-0.169c0.109,-0.933 0.453,-1.604 1.03,-2.01c0.578,-0.407 1.3,-0.61 2.166,-0.61c0.95,0 1.695,0.236 2.239,0.706c0.542,0.471 0.813,1.057 0.813,1.757c0,0.398 -0.077,0.778 -0.233,1.138c-0.155,0.361 -0.401,0.737 -0.738,1.132c-0.223,0.261 -0.626,0.638 -1.208,1.129c-0.582,0.491 -0.951,0.817 -1.106,0.978c-0.155,0.161 -0.281,0.318 -0.377,0.471l3.662,0Z" style="fill:#273c83;fill-rule:nonzero;"/><path d="M231.557,46.853c0.932,0 1.661,0.306 2.186,0.918c0.625,0.724 0.938,1.926 0.938,3.604c0,1.674 -0.315,2.877 -0.945,3.61c-0.52,0.603 -1.247,0.905 -2.179,0.905c-0.936,0 -1.691,-0.331 -2.264,-0.992c-0.573,-0.663 -0.861,-1.843 -0.861,-3.542c0,-1.666 0.316,-2.865 0.946,-3.597c0.521,-0.604 1.247,-0.906 2.179,-0.906Zm0,1.407c-0.223,0 -0.422,0.065 -0.597,0.196c-0.176,0.131 -0.311,0.365 -0.407,0.703c-0.127,0.439 -0.19,1.177 -0.19,2.216c0,1.038 0.056,1.752 0.17,2.14c0.114,0.388 0.257,0.647 0.43,0.775c0.173,0.129 0.371,0.194 0.594,0.194c0.223,0 0.422,-0.066 0.598,-0.197c0.174,-0.131 0.31,-0.365 0.406,-0.703c0.127,-0.434 0.191,-1.171 0.191,-2.209c0,-1.039 -0.057,-1.752 -0.171,-2.141c-0.114,-0.388 -0.257,-0.647 -0.43,-0.778c-0.173,-0.131 -0.371,-0.196 -0.594,-0.196Z" style="fill:#273c83;fill-rule:nonzero;"/></g><g><path d="M159.499,19.206l2.443,0.775c-0.375,1.364 -0.998,2.377 -1.869,3.039c-0.87,0.662 -1.976,0.992 -3.315,0.992c-1.656,0 -3.019,-0.566 -4.086,-1.7c-1.066,-1.134 -1.6,-2.683 -1.6,-4.649c0,-2.08 0.536,-3.695 1.609,-4.845c1.073,-1.151 2.482,-1.726 4.23,-1.726c1.527,0 2.767,0.451 3.72,1.355c0.567,0.534 0.993,1.301 1.276,2.301l-2.493,0.597c-0.148,-0.648 -0.456,-1.159 -0.924,-1.534c-0.468,-0.375 -1.036,-0.563 -1.706,-0.563c-0.925,0 -1.676,0.332 -2.252,0.997c-0.576,0.665 -0.864,1.742 -0.864,3.231c0,1.579 0.284,2.704 0.852,3.374c0.567,0.671 1.304,1.006 2.213,1.006c0.669,0 1.245,-0.213 1.728,-0.639c0.482,-0.426 0.828,-1.097 1.038,-2.011Z" style="fill:#fff;fill-rule:nonzero;"/><path d="M163.593,17.629c0,-1.273 0.19,-2.341 0.57,-3.205c0.284,-0.636 0.671,-1.207 1.162,-1.713c0.491,-0.505 1.028,-0.88 1.613,-1.125c0.777,-0.329 1.674,-0.494 2.689,-0.494c1.839,0 3.31,0.571 4.414,1.713c1.103,1.142 1.655,2.73 1.655,4.765c0,2.016 -0.547,3.594 -1.642,4.733c-1.096,1.14 -2.56,1.709 -4.392,1.709c-1.856,0 -3.331,-0.566 -4.427,-1.7c-1.094,-1.134 -1.642,-2.694 -1.642,-4.683Zm2.596,-0.086c0,1.416 0.326,2.488 0.979,3.218c0.652,0.73 1.48,1.095 2.485,1.095c1.004,0 1.829,-0.362 2.473,-1.086c0.644,-0.725 0.966,-1.811 0.966,-3.26c0,-1.432 -0.313,-2.5 -0.941,-3.205c-0.627,-0.704 -1.46,-1.057 -2.498,-1.057c-1.038,0 -1.875,0.356 -2.511,1.07c-0.635,0.713 -0.953,1.788 -0.953,3.225Z" style="fill:#fff;fill-rule:nonzero;"/><path d="M177.688,23.799l0,-12.494l2.451,0l5.107,8.344l0,-8.344l2.341,0l0,12.494l-2.528,0l-5.03,-8.147l0,8.147l-2.341,0Z" style="fill:#fff;fill-rule:nonzero;"/><path d="M196.056,19.206l0,-2.106l5.43,0l0,4.978c-0.527,0.511 -1.292,0.961 -2.294,1.35c-1.001,0.39 -2.016,0.584 -3.042,0.584c-1.305,0 -2.443,-0.274 -3.414,-0.822c-0.97,-0.548 -1.699,-1.332 -2.187,-2.352c-0.488,-1.02 -0.732,-2.13 -0.732,-3.328c0,-1.302 0.272,-2.458 0.817,-3.469c0.545,-1.012 1.342,-1.787 2.392,-2.327c0.8,-0.415 1.796,-0.622 2.988,-0.622c1.549,0 2.759,0.326 3.629,0.976c0.872,0.651 1.432,1.55 1.682,2.697l-2.503,0.469c-0.176,-0.614 -0.506,-1.098 -0.991,-1.453c-0.485,-0.355 -1.091,-0.533 -1.817,-0.533c-1.102,0 -1.976,0.35 -2.627,1.049c-0.649,0.699 -0.974,1.735 -0.974,3.11c0,1.483 0.329,2.595 0.987,3.337c0.659,0.741 1.521,1.112 2.588,1.112c0.527,0 1.057,-0.103 1.587,-0.311c0.531,-0.207 0.986,-0.458 1.367,-0.754l0,-1.585l-2.886,0Z" style="fill:#fff;fill-rule:nonzero;"/><path d="M203.819,23.799l0,-12.494l5.302,0c1.334,0 2.303,0.113 2.907,0.337c0.604,0.224 1.088,0.624 1.451,1.197c0.364,0.574 0.545,1.23 0.545,1.969c0,0.938 -0.275,1.711 -0.826,2.322c-0.55,0.611 -1.373,0.996 -2.468,1.155c0.545,0.318 0.994,0.668 1.349,1.048c0.355,0.381 0.833,1.057 1.434,2.029l1.524,2.437l-3.013,0l-1.822,-2.718c-0.647,-0.972 -1.09,-1.584 -1.327,-1.837c-0.239,-0.253 -0.491,-0.426 -0.758,-0.52c-0.267,-0.093 -0.69,-0.141 -1.269,-0.141l-0.51,0l0,5.216l-2.519,0Zm2.519,-7.21l1.864,0c1.209,0 1.964,-0.051 2.264,-0.153c0.301,-0.103 0.537,-0.279 0.707,-0.529c0.17,-0.249 0.255,-0.562 0.255,-0.937c0,-0.421 -0.112,-0.76 -0.337,-1.019c-0.224,-0.258 -0.54,-0.421 -0.948,-0.49c-0.204,-0.028 -0.817,-0.042 -1.839,-0.042l-1.966,0l0,3.17Z" style="fill:#fff;fill-rule:nonzero;"/><path d="M216.399,23.799l0,-12.494l9.252,0l0,2.114l-6.733,0l0,2.769l6.264,0l0,2.106l-6.264,0l0,3.4l6.971,0l0,2.105l-9.49,0Z" style="fill:#fff;fill-rule:nonzero;"/><path d="M227.387,19.734l2.451,-0.239c0.148,0.824 0.448,1.429 0.898,1.816c0.451,0.386 1.06,0.579 1.826,0.579c0.812,0 1.423,-0.171 1.834,-0.515c0.412,-0.344 0.618,-0.746 0.618,-1.206c0,-0.295 -0.087,-0.547 -0.26,-0.754c-0.173,-0.208 -0.475,-0.389 -0.906,-0.541c-0.296,-0.103 -0.968,-0.285 -2.018,-0.546c-1.35,-0.335 -2.298,-0.748 -2.843,-1.236c-0.765,-0.688 -1.149,-1.525 -1.149,-2.514c0,-0.637 0.181,-1.232 0.541,-1.786c0.36,-0.553 0.879,-0.976 1.557,-1.265c0.678,-0.29 1.497,-0.435 2.456,-0.435c1.566,0 2.745,0.344 3.536,1.031c0.792,0.688 1.208,1.605 1.248,2.753l-2.52,0.111c-0.108,-0.642 -0.339,-1.104 -0.693,-1.385c-0.355,-0.281 -0.888,-0.422 -1.597,-0.422c-0.731,0 -1.304,0.15 -1.719,0.452c-0.267,0.193 -0.4,0.452 -0.4,0.775c0,0.296 0.125,0.549 0.375,0.759c0.317,0.267 1.089,0.545 2.314,0.835c1.227,0.29 2.133,0.59 2.72,0.899c0.587,0.31 1.047,0.733 1.379,1.27c0.332,0.537 0.498,1.2 0.498,1.99c0,0.716 -0.199,1.386 -0.596,2.012c-0.397,0.624 -0.959,1.089 -1.685,1.393c-0.726,0.304 -1.632,0.456 -2.716,0.456c-1.577,0 -2.789,-0.365 -3.634,-1.095c-0.846,-0.73 -1.35,-1.794 -1.515,-3.192Z" style="fill:#fff;fill-rule:nonzero;"/><path d="M239.142,17.629c0,-1.273 0.189,-2.341 0.57,-3.205c0.283,-0.636 0.671,-1.207 1.162,-1.713c0.491,-0.505 1.028,-0.88 1.612,-1.125c0.778,-0.329 1.674,-0.494 2.69,-0.494c1.839,0 3.31,0.571 4.414,1.713c1.104,1.142 1.655,2.73 1.655,4.765c0,2.016 -0.548,3.594 -1.642,4.733c-1.096,1.14 -2.56,1.709 -4.392,1.709c-1.856,0 -3.331,-0.566 -4.427,-1.7c-1.095,-1.134 -1.642,-2.694 -1.642,-4.683Zm2.596,-0.086c0,1.416 0.326,2.488 0.978,3.218c0.653,0.73 1.482,1.095 2.486,1.095c1.004,0 1.828,-0.362 2.473,-1.086c0.643,-0.725 0.965,-1.811 0.965,-3.26c0,-1.432 -0.313,-2.5 -0.94,-3.205c-0.627,-0.704 -1.46,-1.057 -2.498,-1.057c-1.039,0 -1.876,0.356 -2.511,1.07c-0.635,0.713 -0.953,1.788 -0.953,3.225Z" style="fill:#fff;fill-rule:nonzero;"/></g><g><path d="M151.286,37.676l0,-10.411l3.922,0c0.886,0 1.562,0.049 2.027,0.149c0.653,0.137 1.21,0.385 1.67,0.745c0.601,0.464 1.05,1.057 1.348,1.779c0.297,0.722 0.446,1.548 0.446,2.476c0,0.79 -0.101,1.491 -0.303,2.102c-0.201,0.611 -0.46,1.116 -0.776,1.516c-0.316,0.4 -0.662,0.715 -1.037,0.945c-0.375,0.23 -0.828,0.403 -1.359,0.522c-0.53,0.119 -1.141,0.177 -1.829,0.177l-4.109,0Zm1.507,-1.229l2.431,0c0.751,0 1.34,-0.063 1.767,-0.191c0.427,-0.128 0.767,-0.308 1.021,-0.54c0.357,-0.327 0.636,-0.765 0.835,-1.317c0.199,-0.552 0.299,-1.221 0.299,-2.007c0,-1.089 -0.196,-1.926 -0.586,-2.51c-0.392,-0.585 -0.866,-0.977 -1.426,-1.176c-0.403,-0.142 -1.053,-0.213 -1.949,-0.213l-2.392,0l0,7.954Z" style="fill:#fff;fill-rule:nonzero;"/><path d="M162.804,37.676l0,-10.411l8.232,0l0,1.228l-6.725,0l0,3.189l6.298,0l0,1.221l-6.298,0l0,3.544l6.989,0l0,1.229l-8.496,0Z" style="fill:#fff;fill-rule:nonzero;"/><path d="M177.848,37.676l0,-10.411l1.506,0l0,4.275l5.918,0l0,-4.275l1.507,0l0,10.411l-1.507,0l0,-4.907l-5.918,0l0,4.907l-1.506,0Z" style="fill:#fff;fill-rule:nonzero;"/><rect x="189.544" y="27.265" width="1.507" height="10.412" style="fill:#fff;"/><path d="M193.194,34.331l1.421,-0.113c0.068,0.52 0.224,0.948 0.47,1.282c0.246,0.334 0.627,0.603 1.145,0.809c0.518,0.206 1.101,0.309 1.748,0.309c0.574,0 1.082,-0.078 1.522,-0.234c0.44,-0.156 0.767,-0.371 0.983,-0.643c0.214,-0.273 0.322,-0.569 0.322,-0.891c0,-0.327 -0.103,-0.612 -0.311,-0.856c-0.207,-0.244 -0.549,-0.448 -1.025,-0.614c-0.306,-0.109 -0.981,-0.279 -2.027,-0.509c-1.046,-0.229 -1.778,-0.445 -2.198,-0.649c-0.543,-0.26 -0.949,-0.583 -1.215,-0.97c-0.267,-0.386 -0.4,-0.818 -0.4,-1.296c0,-0.525 0.163,-1.016 0.489,-1.474c0.326,-0.456 0.802,-0.803 1.429,-1.04c0.627,-0.237 1.323,-0.355 2.089,-0.355c0.844,0 1.588,0.124 2.233,0.373c0.645,0.248 1.14,0.614 1.487,1.097c0.347,0.483 0.533,1.03 0.559,1.641l-1.444,0.099c-0.078,-0.658 -0.34,-1.155 -0.788,-1.491c-0.448,-0.337 -1.109,-0.505 -1.985,-0.505c-0.911,0 -1.575,0.153 -1.992,0.458c-0.417,0.306 -0.625,0.674 -0.625,1.105c0,0.374 0.148,0.682 0.442,0.923c0.291,0.241 1.048,0.489 2.272,0.743c1.225,0.253 2.065,0.474 2.52,0.664c0.663,0.279 1.152,0.633 1.469,1.061c0.315,0.429 0.473,0.923 0.473,1.481c0,0.554 -0.174,1.076 -0.521,1.566c-0.346,0.49 -0.845,0.871 -1.494,1.144c-0.65,0.272 -1.381,0.408 -2.194,0.408c-1.031,0 -1.894,-0.138 -2.59,-0.412c-0.697,-0.275 -1.243,-0.688 -1.639,-1.239c-0.396,-0.552 -0.605,-1.176 -0.625,-1.872Z" style="fill:#fff;fill-rule:nonzero;"/><path d="M207.212,37.676l0,-9.183l-3.751,0l0,-1.228l9.025,0l0,1.228l-3.767,0l0,9.183l-1.507,0Z" style="fill:#fff;fill-rule:nonzero;"/><path d="M213.286,32.605c0,-1.728 0.506,-3.081 1.522,-4.059c1.014,-0.977 2.324,-1.466 3.929,-1.466c1.051,0 1.999,0.229 2.843,0.689c0.844,0.459 1.487,1.099 1.93,1.921c0.442,0.821 0.664,1.753 0.664,2.794c0,1.056 -0.233,2.001 -0.699,2.835c-0.466,0.833 -1.126,1.464 -1.981,1.892c-0.854,0.428 -1.776,0.643 -2.764,0.643c-1.072,0 -2.03,-0.236 -2.874,-0.71c-0.844,-0.474 -1.483,-1.12 -1.918,-1.94c-0.435,-0.818 -0.652,-1.685 -0.652,-2.599Zm1.552,0.022c0,1.255 0.37,2.243 1.107,2.965c0.738,0.722 1.663,1.083 2.777,1.083c1.134,0 2.067,-0.364 2.8,-1.094c0.732,-0.729 1.099,-1.763 1.099,-3.104c0,-0.847 -0.157,-1.587 -0.47,-2.219c-0.313,-0.632 -0.772,-1.122 -1.375,-1.47c-0.603,-0.348 -1.28,-0.522 -2.031,-0.522c-1.067,0 -1.985,0.335 -2.753,1.005c-0.769,0.67 -1.154,1.789 -1.154,3.356Z" style="fill:#fff;fill-rule:nonzero;"/><path d="M226.139,37.676l0,-10.411l5.048,0c1.015,0 1.786,0.093 2.315,0.28c0.528,0.187 0.949,0.518 1.265,0.991c0.316,0.474 0.474,0.996 0.474,1.57c0,0.738 -0.262,1.361 -0.785,1.867c-0.522,0.507 -1.33,0.829 -2.423,0.966c0.399,0.175 0.702,0.348 0.909,0.519c0.44,0.369 0.857,0.831 1.25,1.384l1.981,2.834l-1.895,0l-1.507,-2.166c-0.44,-0.625 -0.803,-1.103 -1.087,-1.434c-0.285,-0.332 -0.54,-0.564 -0.765,-0.696c-0.225,-0.133 -0.455,-0.226 -0.687,-0.277c-0.171,-0.034 -0.451,-0.05 -0.84,-0.05l-1.746,0l0,4.623l-1.507,0Zm1.507,-5.816l3.238,0c0.689,0 1.227,-0.066 1.615,-0.196c0.389,-0.13 0.684,-0.338 0.885,-0.625c0.203,-0.286 0.304,-0.597 0.304,-0.933c0,-0.493 -0.196,-0.898 -0.586,-1.215c-0.392,-0.317 -1.009,-0.476 -1.853,-0.476l-3.603,0l0,3.445Z" style="fill:#fff;fill-rule:nonzero;"/><rect x="237.858" y="27.265" width="1.507" height="10.412" style="fill:#fff;"/><path d="M240.771,37.676l4.372,-10.411l1.623,0l4.66,10.411l-1.716,0l-1.328,-3.153l-4.761,0l-1.25,3.153l-1.6,0Zm3.285,-4.275l3.859,0l-1.188,-2.884c-0.362,-0.875 -0.631,-1.595 -0.807,-2.159c-0.146,0.668 -0.35,1.331 -0.614,1.989l-1.25,3.054Z" style="fill:#fff;fill-rule:nonzero;"/></g></svg>